<svg xmlns="http://www.w3.org/2000/svg" xmlns:xlink="http://www.w3.org/1999/xlink" width="745" height="1168" viewBox="0 0 745 1168">
  <defs>
    <path id="a" d="M372.637 1.84c-20.014.003-38.508 10.7-48.516 28.063L4.15 585.007l320.205 555.604c10.008 17.36 28.5 28.055 48.51 28.056h318.362c43.116 0 70.075-46.757 48.523-84.17L452.202 585.254 740.58 86.078c21.614-37.413-5.334-84.237-48.489-84.237H372.637z"/>
    <path id="c" d="M372.637 1.84c-20.014.003-38.508 10.7-48.516 28.063L4.15 585.007l320.205 555.604c10.008 17.36 28.5 28.055 48.51 28.056h318.362c43.116 0 70.075-46.757 48.523-84.17L452.202 585.254 740.58 86.078c21.614-37.413-5.334-84.237-48.489-84.237H372.637z"/>
    <path id="e" d="M372.637 1.84c-20.014.003-38.508 10.7-48.516 28.063L4.15 585.007l320.205 555.604c10.008 17.36 28.5 28.055 48.51 28.056h318.362c43.116 0 70.075-46.757 48.523-84.17L452.202 585.254 740.58 86.078c21.614-37.413-5.334-84.237-48.489-84.237H372.637z"/>
    <path id="g" d="M372.637 1.84c-20.014.003-38.508 10.7-48.516 28.063L4.15 585.007l320.205 555.604c10.008 17.36 28.5 28.055 48.51 28.056h318.362c43.116 0 70.075-46.757 48.523-84.17L452.202 585.254 740.58 86.078c21.614-37.413-5.334-84.237-48.489-84.237H372.637z"/>
    <path id="i" d="M372.637 1.84c-20.014.003-38.508 10.7-48.516 28.063L4.15 585.007l320.205 555.604c10.008 17.36 28.5 28.055 48.51 28.056h318.362c43.116 0 70.075-46.757 48.523-84.17L452.202 585.254 740.58 86.078c21.614-37.413-5.334-84.237-48.489-84.237H372.637z"/>
    <path id="k" d="M372.637 1.84c-20.014.003-38.508 10.7-48.516 28.063L4.15 585.007l320.205 555.604c10.008 17.36 28.5 28.055 48.51 28.056h318.362c43.116 0 70.075-46.757 48.523-84.17L452.202 585.254 740.58 86.078c21.614-37.413-5.334-84.237-48.489-84.237H372.637z"/>
    <path id="m" d="M372.637 1.84c-20.014.003-38.508 10.7-48.516 28.063L4.15 585.007l320.205 555.604c10.008 17.36 28.5 28.055 48.51 28.056h318.362c43.116 0 70.075-46.757 48.523-84.17L452.202 585.254 740.58 86.078c21.614-37.413-5.334-84.237-48.489-84.237H372.637z"/>
    <path id="o" d="M372.637 1.84c-20.014.003-38.508 10.7-48.516 28.063L4.15 585.007l320.205 555.604c10.008 17.36 28.5 28.055 48.51 28.056h318.362c43.116 0 70.075-46.757 48.523-84.17L452.202 585.254 740.58 86.078c21.614-37.413-5.334-84.237-48.489-84.237H372.637z"/>
    <path id="q" d="M372.637 1.84c-20.014.003-38.508 10.7-48.516 28.063L4.15 585.007l320.205 555.604c10.008 17.36 28.5 28.055 48.51 28.056h318.362c43.116 0 70.075-46.757 48.523-84.17L452.202 585.254 740.58 86.078c21.614-37.413-5.334-84.237-48.489-84.237H372.637z"/>
  </defs>
  <g fill="none" fill-rule="evenodd">
    <g transform="translate(-4 -1)">
      <mask id="b" fill="#fff">
        <use xlink:href="#a"/>
      </mask>
      <polygon fill="#594796" fill-rule="nonzero" points="189.142 966.625 320.518 748.475 1315.995 1168.667 324.216 1206.675" mask="url(#b)"/>
    </g>
    <g transform="translate(-4 -1)">
      <mask id="d" fill="#fff">
        <use xlink:href="#c"/>
      </mask>
      <polygon fill="#562A7B" fill-rule="nonzero" points="1012.352 1168.667 4.924 584.822 469.312 584.569" mask="url(#d)"/>
    </g>
    <g transform="translate(-4 -1)">
      <mask id="f" fill="#fff">
        <use xlink:href="#e"/>
      </mask>
      <polygon fill="#F2DC31" fill-rule="nonzero" points="189.142 211.847 294.613 429.649 1203.393 -7.706 324.216 -28.203" mask="url(#f)"/>
    </g>
    <g transform="translate(-4 -1)">
      <mask id="h" fill="#fff">
        <use xlink:href="#g"/>
      </mask>
      <polygon fill="#000" fill-opacity=".15" fill-rule="nonzero" points="228.549 974.611 900.393 585.254 4.157 585.007" mask="url(#h)"/>
    </g>
    <g transform="translate(-4 -1)">
      <mask id="j" fill="#fff">
        <use xlink:href="#i"/>
      </mask>
      <polygon fill="#7CB947" fill-rule="nonzero" points="228.549 974.611 462.802 567.064 -22.404 574.231" mask="url(#j)"/>
    </g>
    <g transform="translate(-4 -1)">
      <mask id="l" fill="#fff">
        <use xlink:href="#k"/>
      </mask>
      <polygon fill="#594796" fill-opacity=".08" fill-rule="nonzero" points="4.151 585.007 197.826 1028.564 340.732 779.433" mask="url(#l)"/>
    </g>
    <g transform="translate(-4 -1)">
      <mask id="n" fill="#fff">
        <use xlink:href="#m"/>
      </mask>
      <polygon fill="#CAD63B" fill-rule="nonzero" points="886.718 81.161 4.151 585.007 468.545 585.26" mask="url(#n)"/>
    </g>
    <g transform="translate(-4 -1)">
      <mask id="p" fill="#fff">
        <use xlink:href="#o"/>
      </mask>
      <polygon fill="#9BC43F" fill-rule="nonzero" points="1.535 -193.191 4.157 585.007 452.202 585.254" mask="url(#p)"/>
    </g>
    <g transform="translate(-4 -1)">
      <mask id="r" fill="#fff">
        <use xlink:href="#q"/>
      </mask>
      <polygon fill="#F2DC31" fill-opacity=".23" fill-rule="nonzero" points="4.924 584.822 197.826 145.525 340.799 392.82" mask="url(#r)"/>
    </g>
  </g>
</svg>
