<svg xmlns="http://www.w3.org/2000/svg" xmlns:xlink="http://www.w3.org/1999/xlink" width="140" height="50" viewBox="0 0 140 50">
  <defs>
    <path id="a" d="M15.884.078c-.853 0-1.642.457-2.068 1.197L.177 24.936 13.826 48.62a2.387 2.387 0 0 0 2.068 1.196h13.57c1.838 0 2.987-1.993 2.068-3.587L19.275 24.947 31.568 3.669C32.489 2.074 31.34.08 29.5.08H15.884z"/>
    <path id="c" d="M15.884.078c-.853 0-1.642.457-2.068 1.197L.177 24.936 13.826 48.62a2.387 2.387 0 0 0 2.068 1.196h13.57c1.838 0 2.987-1.993 2.068-3.587L19.275 24.947 31.568 3.669C32.489 2.074 31.34.08 29.5.08H15.884z"/>
    <path id="e" d="M15.884.078c-.853 0-1.642.457-2.068 1.197L.177 24.936 13.826 48.62a2.387 2.387 0 0 0 2.068 1.196h13.57c1.838 0 2.987-1.993 2.068-3.587L19.275 24.947 31.568 3.669C32.489 2.074 31.34.08 29.5.08H15.884z"/>
    <path id="g" d="M15.884.078c-.853 0-1.642.457-2.068 1.197L.177 24.936 13.826 48.62a2.387 2.387 0 0 0 2.068 1.196h13.57c1.838 0 2.987-1.993 2.068-3.587L19.275 24.947 31.568 3.669C32.489 2.074 31.34.08 29.5.08H15.884z"/>
    <path id="i" d="M15.884.078c-.853 0-1.642.457-2.068 1.197L.177 24.936 13.826 48.62a2.387 2.387 0 0 0 2.068 1.196h13.57c1.838 0 2.987-1.993 2.068-3.587L19.275 24.947 31.568 3.669C32.489 2.074 31.34.08 29.5.08H15.884z"/>
    <path id="k" d="M15.884.078c-.853 0-1.642.457-2.068 1.197L.177 24.936 13.826 48.62a2.387 2.387 0 0 0 2.068 1.196h13.57c1.838 0 2.987-1.993 2.068-3.587L19.275 24.947 31.568 3.669C32.489 2.074 31.34.08 29.5.08H15.884z"/>
    <path id="m" d="M15.884.078c-.853 0-1.642.457-2.068 1.197L.177 24.936 13.826 48.62a2.387 2.387 0 0 0 2.068 1.196h13.57c1.838 0 2.987-1.993 2.068-3.587L19.275 24.947 31.568 3.669C32.489 2.074 31.34.08 29.5.08H15.884z"/>
    <path id="o" d="M15.884.078c-.853 0-1.642.457-2.068 1.197L.177 24.936 13.826 48.62a2.387 2.387 0 0 0 2.068 1.196h13.57c1.838 0 2.987-1.993 2.068-3.587L19.275 24.947 31.568 3.669C32.489 2.074 31.34.08 29.5.08H15.884z"/>
    <path id="q" d="M15.884.078c-.853 0-1.642.457-2.068 1.197L.177 24.936 13.826 48.62a2.387 2.387 0 0 0 2.068 1.196h13.57c1.838 0 2.987-1.993 2.068-3.587L19.275 24.947 31.568 3.669C32.489 2.074 31.34.08 29.5.08H15.884z"/>
  </defs>
  <g fill="none" fill-rule="evenodd">
    <mask id="b" fill="#fff">
      <use xlink:href="#a"/>
    </mask>
    <polygon fill="#594796" fill-rule="nonzero" points="8.062 41.203 13.662 31.904 56.095 49.815 13.82 51.435" mask="url(#b)"/>
    <mask id="d" fill="#fff">
      <use xlink:href="#c"/>
    </mask>
    <polygon fill="#562A7B" fill-rule="nonzero" points="43.152 49.815 .21 24.928 20.005 24.918" mask="url(#d)"/>
    <mask id="f" fill="#fff">
      <use xlink:href="#e"/>
    </mask>
    <polygon fill="#F2DC31" fill-rule="nonzero" points="8.062 9.03 12.558 18.314 51.296 -.328 13.82 -1.202" mask="url(#f)"/>
    <g>
      <mask id="h" fill="#fff">
        <use xlink:href="#g"/>
      </mask>
      <polygon fill="#000" fill-opacity=".15" fill-rule="nonzero" points="9.742 41.544 38.38 24.947 .177 24.936" mask="url(#h)"/>
    </g>
    <g>
      <mask id="j" fill="#fff">
        <use xlink:href="#i"/>
      </mask>
      <polygon fill="#7CB947" fill-rule="nonzero" points="9.742 41.544 19.727 24.172 -.955 24.477" mask="url(#j)"/>
    </g>
    <g>
      <mask id="l" fill="#fff">
        <use xlink:href="#k"/>
      </mask>
      <polygon fill="#594796" fill-opacity=".08" fill-rule="nonzero" points=".177 24.936 8.432 43.843 14.524 33.224" mask="url(#l)"/>
    </g>
    <g>
      <mask id="n" fill="#fff">
        <use xlink:href="#m"/>
      </mask>
      <polygon fill="#CAD63B" fill-rule="nonzero" points="37.797 3.46 .177 24.936 19.972 24.947" mask="url(#n)"/>
    </g>
    <g>
      <mask id="p" fill="#fff">
        <use xlink:href="#o"/>
      </mask>
      <polygon fill="#9BC43F" fill-rule="nonzero" points=".065 -8.235 .177 24.936 19.275 24.947" mask="url(#p)"/>
    </g>
    <g>
      <mask id="r" fill="#fff">
        <use xlink:href="#q"/>
      </mask>
      <polygon fill="#F2DC31" fill-opacity=".23" fill-rule="nonzero" points=".21 24.928 8.432 6.203 14.527 16.744" mask="url(#r)"/>
    </g>
    <path fill="#4D4D4D" fill-rule="nonzero" d="M38.22 34.434a.77.77 0 0 1-.22-.567V11.065c0-.229.073-.418.22-.567a.753.753 0 0 1 .56-.223h1.594c.225 0 .412.074.56.223.146.15.22.338.22.567v11.95l6.68-5.632c.068-.045.18-.137.339-.274.158-.115.31-.195.458-.24.146-.046.333-.07.56-.07h1.797a.702.702 0 0 1 .712.721c0 .253-.136.47-.407.653l-7.833 6.593 8.68 8.551c.272.23.407.436.407.618a.703.703 0 0 1-.712.722h-1.763c-.34 0-.582-.035-.73-.103-.146-.07-.355-.229-.626-.481l-7.562-7.315v7.109a.774.774 0 0 1-.22.566.754.754 0 0 1-.56.224H38.78a.752.752 0 0 1-.56-.224m17.108-1.545c-1.176-1.407-1.763-3.28-1.763-5.615V17.59a.754.754 0 0 1 .78-.79h1.695c.226 0 .413.075.56.224.147.15.22.338.22.566v9.513c0 3.411 1.47 5.116 4.408 5.116 1.425 0 2.555-.451 3.391-1.356.837-.904 1.255-2.157 1.255-3.76v-9.513c0-.228.073-.417.22-.566a.754.754 0 0 1 .56-.223h1.696a.7.7 0 0 1 .542.223c.136.15.204.338.204.566v16.278a.81.81 0 0 1-.204.567.699.699 0 0 1-.542.223h-1.594a.751.751 0 0 1-.56-.223.771.771 0 0 1-.22-.567v-1.511c-.633.87-1.402 1.528-2.306 1.975-.904.446-2.023.669-3.357.669-2.148 0-3.81-.704-4.985-2.112m17.345 1.546a.772.772 0 0 1-.22-.567V17.624c0-.229.073-.424.22-.584a.727.727 0 0 1 .56-.24h1.559c.226 0 .418.08.576.24.158.16.238.355.238.584v1.51c.926-1.556 2.51-2.334 4.747-2.334h1.323c.226 0 .412.074.56.223.146.15.22.338.22.567v1.407a.716.716 0 0 1-.22.55.787.787 0 0 1-.56.206h-2.035c-1.22 0-2.182.36-2.882 1.082-.701.72-1.051 1.7-1.051 2.936v10.096c0 .229-.08.418-.238.567a.812.812 0 0 1-.576.223h-1.662a.752.752 0 0 1-.56-.223m11.191 0a.772.772 0 0 1-.22-.567V17.59c0-.229.073-.418.22-.567a.754.754 0 0 1 .56-.223h1.627c.226 0 .413.074.56.223.147.15.22.338.22.567v16.277a.774.774 0 0 1-.22.567.753.753 0 0 1-.56.223h-1.627a.752.752 0 0 1-.56-.223m-.271-21.189a.771.771 0 0 1-.22-.566v-1.855c0-.228.072-.423.22-.584a.727.727 0 0 1 .56-.24h2.136c.225 0 .417.08.576.24.158.16.238.356.238.584v1.855c0 .229-.08.417-.238.566a.81.81 0 0 1-.576.224H84.15a.751.751 0 0 1-.56-.224m17.159 17.737c.825-.915 1.271-2.232 1.34-3.949.021-.228.033-.664.033-1.305 0-.64-.012-1.076-.034-1.305-.068-1.717-.514-3.033-1.34-3.949-.825-.915-1.95-1.373-3.373-1.373-1.425 0-2.555.458-3.391 1.373-.837.916-1.278 2.232-1.323 3.95l-.034 1.304.034 1.305c.045 1.717.486 3.034 1.323 3.95.836.915 1.966 1.373 3.39 1.373 1.425 0 2.55-.458 3.375-1.374m-9.156 1.89c-1.368-1.42-2.097-3.309-2.187-5.667l-.034-1.477.034-1.477c.09-2.335.825-4.217 2.204-5.648 1.379-1.43 3.3-2.147 5.765-2.147 2.463 0 4.385.716 5.764 2.147 1.379 1.43 2.114 3.313 2.205 5.648.022.253.033.745.033 1.477 0 .733-.011 1.225-.033 1.477-.091 2.358-.82 4.247-2.188 5.666C101.79 34.291 99.862 35 97.376 35c-2.487 0-4.414-.71-5.782-2.129m17.921.017c-1.175-1.407-1.763-3.28-1.763-5.615V17.59a.754.754 0 0 1 .78-.79h1.695c.226 0 .413.075.56.224.147.15.22.338.22.566v9.513c0 3.411 1.47 5.116 4.409 5.116 1.424 0 2.554-.451 3.39-1.356.836-.904 1.255-2.157 1.255-3.76v-9.513c0-.228.074-.417.22-.566a.754.754 0 0 1 .56-.223h1.696a.7.7 0 0 1 .543.223c.135.15.203.338.203.566v16.278a.81.81 0 0 1-.203.567.7.7 0 0 1-.543.223h-1.594a.751.751 0 0 1-.56-.223.771.771 0 0 1-.22-.567v-1.511c-.633.87-1.402 1.528-2.306 1.975-.904.446-2.023.669-3.357.669-2.148 0-3.81-.704-4.985-2.112m19.244 1.34c-1.074-.516-1.877-1.105-2.408-1.769-.531-.664-.797-1.213-.797-1.649 0-.228.085-.406.255-.532a.871.871 0 0 1 .525-.188h1.526c.226 0 .43.114.61.343.543.641 1.13 1.145 1.764 1.51.632.367 1.48.55 2.543.55 1.175 0 2.13-.234 2.866-.704.734-.469 1.102-1.116 1.102-1.94 0-.55-.153-1.001-.458-1.357-.305-.354-.826-.663-1.56-.927-.735-.263-1.826-.555-3.272-.875-1.967-.435-3.363-1.065-4.188-1.889-.826-.824-1.238-1.889-1.238-3.194 0-.87.254-1.7.763-2.49.509-.79 1.255-1.43 2.238-1.923.983-.492 2.165-.738 3.544-.738 1.446 0 2.679.24 3.696.721 1.017.481 1.78 1.048 2.289 1.7.508.653.763 1.197.763 1.631a.676.676 0 0 1-.22.515.744.744 0 0 1-.526.207h-1.424a.83.83 0 0 1-.678-.344 11.115 11.115 0 0 0-.933-1.013c-.26-.24-.633-.452-1.12-.635-.485-.183-1.101-.275-1.847-.275-1.085 0-1.922.235-2.51.704-.588.47-.881 1.082-.881 1.837 0 .481.124.888.373 1.22.248.331.729.635 1.44.91.713.274 1.747.56 3.104.858 2.147.458 3.667 1.116 4.56 1.974.893.859 1.34 1.952 1.34 3.28a4.54 4.54 0 0 1-.848 2.678c-.565.802-1.396 1.432-2.492 1.89-1.097.457-2.403.686-3.917.686-1.582 0-2.91-.257-3.984-.773"/>
  </g>
</svg>
